<?xml version="1.0" encoding="utf-8"?>
<!DOCTYPE svg PUBLIC "-//W3C//DTD SVG 1.1//EN" "http://www.w3.org/Graphics/SVG/1.1/DTD/svg11.dtd">
<svg version="1.1" id="Layer_1" xmlns="http://www.w3.org/2000/svg" xmlns:xlink="http://www.w3.org/1999/xlink" x="0px" y="0px"
	 width="17px" height="12px" viewBox="0 0 17 12" enable-background="new 0 0 17 12" xml:space="preserve">
<path id="Stroke-7_1_" fill="#007EFF" d="M12.757,5.121l-2.535-2.535c-0.391-0.391-0.391-1.023,0-1.414
	c0.39-0.391,1.023-0.391,1.414,0l3.709,3.709c0.278-0.02,0.563,0.078,0.775,0.291c0.391,0.391,0.391,1.023,0,1.414L15.966,6.74
	c-0.049,0.063-0.104,0.117-0.166,0.166l-3.922,3.922c-0.391,0.391-1.023,0.391-1.414,0s-0.391-1.023,0-1.414l2.293-2.293H2.171
	c-0.553,0-1-0.447-1-1s0.447-1,1-1H12.757L12.757,5.121z"/>
</svg>
