<?xml version="1.0" encoding="utf-8"?>
<!DOCTYPE svg PUBLIC "-//W3C//DTD SVG 1.1//EN" "http://www.w3.org/Graphics/SVG/1.1/DTD/svg11.dtd">
<svg version="1.1" id="Layer_1" xmlns="http://www.w3.org/2000/svg" xmlns:xlink="http://www.w3.org/1999/xlink" x="0px" y="0px"
	 width="166px" height="17px" viewBox="0 0 166 17" enable-background="new 0 0 166 17" xml:space="preserve">
	<g id="Icons" >
		<path id="Fill-683" d="M39.884,1.625l-2.886,7.377l-2.87-7.377c0,0-0.925-0.201-2.227-0.201
			s-2.25,0.201-2.25,0.201l5.617,14.118c0,0,0.918,0.207,1.729,0.207c0.771,0,1.735-0.207,1.735-0.207l5.616-14.118
			c0,0-1.16-0.201-2.276-0.201C40.957,1.423,39.884,1.625,39.884,1.625"/>
		<path id="Fill-685" d="M45.651,1.625v14.118c0,0,1.066,0.207,2.15,0.207
			c1.084,0,2.15-0.207,2.15-0.207V1.625c0,0-1.008-0.201-2.15-0.201C46.659,1.423,45.651,1.625,45.651,1.625"/>
		<path id="Fill-687" d="M62.916,11.957h-4.724l5.361-10.534H52.484c0,0-0.205,0.956-0.205,1.86
			c0,0.905,0.205,1.89,0.205,1.89h4.48l-5.36,10.531l11.312,0.004c0,0,0.206-0.906,0.206-1.867S62.916,11.957,62.916,11.957"/>
		<path id="Fill-689" d="M74.639,1.423l-2.667,5.031l-2.657-5.031h-4.687l5.193,9.316v4.886
			c0,0,1.007,0.207,2.15,0.207c1.143,0,2.149-0.207,2.149-0.207v-4.886l5.206-9.316H74.639z"/>
		<path id="Fill-691" d="M85.809,11.957h-1.252V5.174h1.252c1.541,0,3.188,0.89,3.188,3.392
			C88.996,11.066,87.35,11.957,85.809,11.957 M85.809,1.423h-5.553v14.286h5.553c4.375,0,7.551-3.004,7.551-7.143
			S90.184,1.423,85.809,1.423"/>
		<path id="Fill-693" d="M99.439,5.174h1.518c0.346,0,1.15,0.111,1.15,1.151
			c0,1.039-0.805,1.15-1.15,1.15h-1.518V5.174z M106.471,6.325c0-2.886-2.268-4.901-5.514-4.901H95.14v14.202
			c0,0,1.034,0.215,2.149,0.215s2.15-0.215,2.15-0.215v-4.399H99.9l2.853,4.399c0,0,0.988,0.207,2.116,0.207
			s2.687-0.207,2.687-0.207l-3.384-5.21C105.621,9.559,106.471,8.069,106.471,6.325L106.471,6.325z"/>
		<path id="Fill-695" d="M115.276,12.264c-2.059,0-3.728-1.668-3.728-3.727
			c0-2.058,1.669-3.727,3.728-3.727s3.728,1.669,3.728,3.727C119.004,10.596,117.335,12.264,115.276,12.264 M115.276,1.051
			c-4.134,0-7.485,3.352-7.485,7.486c0,4.135,3.352,7.486,7.485,7.486s7.485-3.352,7.485-7.486
			C122.762,4.403,119.41,1.051,115.276,1.051"/>
		<path id="Fill-697" d="M128.463,5.174h1.416c0.43,0,1.15,0.157,1.15,1.211s-0.721,1.212-1.15,1.212
			h-1.416V5.174z M129.879,1.423h-5.717v14.202l0.432,0.076c0.481,0.082,1.092,0.131,1.719,0.131s1.238-0.049,1.721-0.131
			l0.43-0.076v-4.277h1.416c3.245,0,5.512-2.041,5.512-4.962S133.124,1.423,129.879,1.423L129.879,1.423z"/>
		<path id="Fill-699" fill="#007EFF" d="M3.653,16.32c-0.996,0-1.882-0.709-2.071-1.723
			C1.193,12.507,0.997,10.367,1,8.238c0.002-1.944,0.171-3.897,0.5-5.808c0.198-1.148,1.289-1.918,2.437-1.72
			c1.148,0.197,1.918,1.288,1.721,2.437C5.369,4.823,5.221,6.538,5.219,8.244c-0.002,1.869,0.169,3.746,0.511,5.58
			c0.213,1.145-0.542,2.246-1.688,2.461C3.912,16.309,3.782,16.32,3.653,16.32"/>
		<path id="Fill-701" fill="#007EFF" d="M12.095,16.313c-0.925,0-1.774-0.613-2.033-1.549
			c-0.584-2.119-0.879-4.314-0.876-6.524C9.188,6.224,9.44,4.215,9.933,2.271c0.287-1.129,1.432-1.813,2.563-1.526
			c1.129,0.286,1.813,1.434,1.526,2.563c-0.408,1.608-0.616,3.269-0.618,4.938c-0.002,1.829,0.241,3.645,0.725,5.397
			c0.31,1.123-0.35,2.283-1.473,2.594C12.469,16.289,12.28,16.313,12.095,16.313"/>
		<path id="Fill-703" fill="#007EFF" d="M21.01,16.314c-0.743,0-1.463-0.395-1.848-1.09
			c-1.175-2.127-1.793-4.537-1.79-6.971c0.003-2.248,0.511-4.403,1.509-6.406c0.52-1.043,1.787-1.467,2.83-0.947
			c1.042,0.52,1.466,1.786,0.947,2.829c-0.706,1.414-1.064,2.938-1.066,4.529c-0.002,1.72,0.435,3.422,1.264,4.924
			c0.563,1.02,0.194,2.303-0.827,2.867C21.706,16.229,21.355,16.314,21.01,16.314"/>
		<path id="Fill-705" fill="#007EFF" d="M161.996,16.32c-0.129,0-0.259-0.012-0.389-0.035
			c-1.146-0.215-1.901-1.316-1.688-2.461c0.342-1.834,0.514-3.711,0.512-5.58c-0.004-1.707-0.15-3.421-0.439-5.097
			c-0.197-1.148,0.572-2.239,1.721-2.437c1.148-0.198,2.24,0.572,2.438,1.72c0.328,1.91,0.496,3.864,0.5,5.808
			c0.003,2.131-0.193,4.27-0.584,6.359C163.878,15.611,162.992,16.32,161.996,16.32"/>
		<path id="Fill-707" fill="#007EFF" d="M153.809,16.313c-0.186,0-0.374-0.023-0.562-0.076
			c-1.123-0.311-1.783-1.471-1.474-2.594c0.484-1.754,0.728-3.569,0.725-5.397c-0.002-1.669-0.21-3.33-0.618-4.938
			c-0.286-1.129,0.397-2.277,1.526-2.564c1.128-0.286,2.277,0.397,2.563,1.526c0.493,1.944,0.745,3.953,0.747,5.969
			c0.004,2.21-0.291,4.403-0.876,6.524C155.584,15.699,154.734,16.313,153.809,16.313"/>
		<path id="Fill-709"  fill="#007EFF" d="M144.875,16.314c-0.345,0-0.694-0.086-1.018-0.264
			c-1.021-0.564-1.391-1.848-0.826-2.867c0.829-1.502,1.267-3.203,1.264-4.924c-0.002-1.591-0.36-3.115-1.066-4.529
			c-0.52-1.042-0.096-2.31,0.947-2.829c1.041-0.52,2.309-0.097,2.828,0.946c1,2.002,1.508,4.158,1.51,6.407
			c0.004,2.433-0.615,4.843-1.79,6.97C146.339,15.92,145.618,16.314,144.875,16.314"/>
	</g>
</svg>
